<svg width="80" height="80" viewBox="0 0 80 80" fill="none" xmlns="http://www.w3.org/2000/svg">
<rect width="80" height="80" rx="15" fill="#152A59"/>
<path d="M27.4773 50.0562H26.7919V53.3333H53.2317V50.0562H52.4934M27.4773 50.0562V33.6797M27.4773 50.0562H52.4934M27.4773 33.6797H27.1667C26.8906 33.6797 26.6667 33.4559 26.6667 33.1797V30.7196C26.6667 30.4434 26.8906 30.2196 27.1667 30.2196H28.6882M27.4773 33.6797H52.4934M52.4934 50.0562V33.6797M52.4934 33.6797H52.8334C53.1096 33.6797 53.3334 33.4559 53.3334 33.1797V30.7196C53.3334 30.4434 53.1096 30.2196 52.8334 30.2196H51.2646M28.6882 30.2196V27.7018C28.6882 27.1495 29.1359 26.7018 29.6882 26.7018H32.9494C33.5005 26.7018 33.9477 27.1476 33.9494 27.6986L33.9573 30.2196M28.6882 30.2196H33.9573M33.9573 30.2196H46.0469M46.0469 30.2196V27.6667C46.0469 27.1144 46.4946 26.6667 47.0469 26.6667H50.2646C50.8169 26.6667 51.2646 27.1144 51.2646 27.6667V30.2196M46.0469 30.2196H51.2646" stroke="white" stroke-width="1.5" stroke-linecap="round" stroke-linejoin="round"/>
<path d="M39.7999 40.4332L39.6416 41.3895L39.5213 42.1165H40.2582H41.6294L40.2049 44.8111L40.3634 43.3676L40.4395 42.6744H39.7421H38.4426L39.7999 40.4332Z" stroke="white" stroke-width="1.25"/>
<path d="M31.2147 29.3203V28.775H30.6667V28.5453H31.2147V28H31.4521V28.5453H32.0001V28.775H31.4521V29.3203H31.2147Z" fill="white"/>
<path d="M48 28.8324V28.4H49.3333V28.8324H48Z" fill="white"/>
</svg>
