<svg width="80" height="80" viewBox="0 0 80 80" fill="none" xmlns="http://www.w3.org/2000/svg">
<rect width="80" height="80" rx="15" fill="#152A59"/>
<mask id="path-2-outside-1_257_3936" maskUnits="userSpaceOnUse" x="24.3333" y="29.6667" width="32" height="21" fill="black">
<rect fill="white" x="24.3333" y="29.6667" width="32" height="21"/>
<path d="M34.2608 45.3333C34.2608 47.0942 32.8333 48.5217 31.0724 48.5217C29.3115 48.5217 27.884 47.0942 27.884 45.3333C27.884 43.5724 29.3115 42.1449 31.0724 42.1449C32.8333 42.1449 34.2608 43.5724 34.2608 45.3333Z"/>
<path d="M52.1159 45.3333C52.1159 47.0942 50.6884 48.5217 48.9275 48.5217C47.1665 48.5217 45.739 47.0942 45.739 45.3333C45.739 43.5724 47.1665 42.1449 48.9275 42.1449C50.6884 42.1449 52.1159 43.5724 52.1159 45.3333Z"/>
</mask>
<path d="M31.5977 32.5797C31.5977 32.9939 31.9335 33.3297 32.3477 33.3297C32.762 33.3297 33.0977 32.9939 33.0977 32.5797H31.5977ZM47.6521 32.5797L46.9813 32.9151V32.9151L47.6521 32.5797ZM49.5651 36.4058L48.8943 36.7412C48.9029 36.7584 48.9121 36.7752 48.922 36.7917L49.5651 36.4058ZM53.3912 45.3333L53.3912 44.5833H53.3912V45.3333ZM52.6666 44.5833C52.2524 44.5833 51.9166 44.9191 51.9166 45.3333C51.9166 45.7475 52.2524 46.0833 52.6666 46.0833V44.5833ZM44.4637 46.0833C44.8779 46.0833 45.2137 45.7475 45.2137 45.3333C45.2137 44.9191 44.8779 44.5833 44.4637 44.5833V46.0833ZM35.5361 44.5833C35.1219 44.5833 34.7861 44.9191 34.7861 45.3333C34.7861 45.7475 35.1219 46.0833 35.5361 46.0833V44.5833ZM27.4835 46.0448C27.8764 45.9139 28.0888 45.4891 27.9578 45.0962C27.8268 44.7032 27.4021 44.4908 27.0091 44.6218L27.4835 46.0448ZM31.4166 36C31.4166 35.5858 31.0808 35.25 30.6666 35.25C30.2524 35.25 29.9166 35.5858 29.9166 36H31.4166ZM25.1862 31.2066C24.78 31.2878 24.5166 31.6829 24.5978 32.0891C24.6791 32.4953 25.0742 32.7587 25.4803 32.6775L25.1862 31.2066ZM30.4347 33.2174L30.965 32.6871L30.4347 33.2174ZM44.4637 37.6812L44.994 38.2115C45.2869 37.9186 45.2869 37.4437 44.994 37.1508L44.4637 37.6812ZM43.081 35.2378C42.7881 34.9449 42.3132 34.9449 42.0203 35.2378C41.7274 35.5307 41.7274 36.0056 42.0203 36.2984L43.081 35.2378ZM42.0203 39.0639C41.7274 39.3568 41.7274 39.8316 42.0203 40.1245C42.3132 40.4174 42.7881 40.4174 43.081 40.1245L42.0203 39.0639ZM33.0977 32.5797C33.0977 32.3655 33.1542 32.0835 33.3365 31.8665C33.4965 31.676 33.8528 31.4167 34.7072 31.4167V29.9167C33.521 29.9167 32.6975 30.295 32.188 30.9017C31.7007 31.4817 31.5977 32.1563 31.5977 32.5797H33.0977ZM34.7072 31.4167H45.739V29.9167H34.7072V31.4167ZM45.739 31.4167C45.9156 31.4167 46.0746 31.4843 46.281 31.7267C46.5102 31.996 46.7182 32.3889 46.9813 32.9151L48.3229 32.2443C48.0759 31.7502 47.7911 31.1866 47.4232 30.7544C47.0325 30.2954 46.49 29.9167 45.739 29.9167V31.4167ZM46.9813 32.9151L48.8943 36.7412L50.236 36.0704L48.3229 32.2443L46.9813 32.9151ZM49.5651 36.4058C48.922 36.7917 48.9223 36.7922 48.9227 36.7928C48.9228 36.793 48.9231 36.7935 48.9234 36.7939C48.9238 36.7947 48.9243 36.7954 48.9248 36.7962C48.9257 36.7978 48.9267 36.7994 48.9277 36.801C48.9298 36.8043 48.9319 36.8077 48.9342 36.8113C48.9388 36.8185 48.9439 36.8263 48.9496 36.8347C48.961 36.8514 48.9746 36.8704 48.9907 36.8913C49.023 36.9331 49.065 36.9823 49.1185 37.0358C49.2261 37.1433 49.3773 37.2657 49.5835 37.3803C49.9991 37.6111 50.6067 37.7935 51.4782 37.7935V36.2935C50.8192 36.2935 50.4703 36.157 50.312 36.069C50.2312 36.0242 50.1912 35.9871 50.1792 35.9751C50.1729 35.9688 50.1731 35.9682 50.1784 35.9751C50.1811 35.9785 50.185 35.9838 50.19 35.9912C50.1925 35.9949 50.1953 35.9991 50.1984 36.0039C50.1999 36.0063 50.2015 36.0088 50.2031 36.0115C50.2039 36.0128 50.2048 36.0142 50.2056 36.0156C50.2061 36.0163 50.2065 36.017 50.2069 36.0177C50.2072 36.0181 50.2075 36.0186 50.2076 36.0188C50.2079 36.0194 50.2083 36.0199 49.5651 36.4058ZM51.4782 37.7935C51.9186 37.7935 52.5768 37.9041 53.0966 38.2035C53.5791 38.4815 53.9166 38.8959 53.9166 39.5942H55.4166C55.4166 38.2519 54.6912 37.391 53.8453 36.9037C53.0366 36.4379 52.1005 36.2935 51.4782 36.2935V37.7935ZM53.9166 39.5942V44.058H55.4166V39.5942H53.9166ZM53.9166 44.058C53.9166 44.1033 53.878 44.2424 53.7268 44.3936C53.5756 44.5448 53.4366 44.5833 53.3912 44.5833L53.3912 46.0833C53.9546 46.0833 54.4532 45.7885 54.7875 45.4542C55.1218 45.12 55.4166 44.6213 55.4166 44.058H53.9166ZM53.3912 44.5833H52.6666V46.0833H53.3912V44.5833ZM44.4637 44.5833H35.5361V46.0833H44.4637V44.5833ZM27.0091 44.6218C26.8223 44.6841 26.5958 44.6783 26.4489 44.5862C26.3471 44.5224 26.0833 44.2901 26.0833 43.4203H24.5833C24.5833 44.5911 24.9571 45.4215 25.6524 45.8573C26.3026 46.2647 27.0326 46.1951 27.4835 46.0448L27.0091 44.6218ZM26.0833 43.4203V38.8502H24.5833V43.4203H26.0833ZM26.0833 38.8502C26.0833 38.5207 26.1597 38.2675 26.2928 38.1073C26.404 37.9733 26.6463 37.7935 27.2463 37.7935V36.2935C26.3158 36.2935 25.6016 36.5919 25.139 37.1488C24.6982 37.6794 24.5833 38.3295 24.5833 38.8502H26.0833ZM28.6666 37.7935C28.9459 37.7935 29.5712 37.8116 30.1192 37.6489C30.4044 37.5642 30.7332 37.4138 30.9943 37.1315C31.2712 36.8322 31.4166 36.4441 31.4166 36H29.9166C29.9166 36.057 29.9079 36.0851 29.9043 36.0947C29.9011 36.1032 29.8982 36.1076 29.8932 36.113C29.8789 36.1284 29.8273 36.1708 29.6922 36.211C29.3996 36.2978 29.025 36.2935 28.6666 36.2935V37.7935ZM25.4803 32.6775C25.9298 32.5876 26.732 32.5276 27.5887 32.6664C28.4452 32.8052 29.2873 33.1307 29.9044 33.7477L30.965 32.6871C30.0516 31.7737 28.8744 31.3552 27.8286 31.1857C26.7828 31.0163 25.7995 31.0839 25.1862 31.2066L25.4803 32.6775ZM29.9044 33.7477C30.804 34.6474 31.838 35.8432 33.0003 36.7564C34.1987 37.698 35.6331 38.4312 37.4492 38.4312V36.9312C36.0769 36.9312 34.9606 36.389 33.9271 35.5769C32.8575 34.7365 31.9784 33.7004 30.965 32.6871L29.9044 33.7477ZM44.994 37.1508L43.081 35.2378L42.0203 36.2984L43.9334 38.2115L44.994 37.1508ZM43.9334 37.1508L42.0203 39.0639L43.081 40.1245L44.994 38.2115L43.9334 37.1508ZM27.2463 37.7935H28.6666V36.2935H27.2463V37.7935ZM37.4492 38.4312H44.4637V36.9312H37.4492V38.4312ZM32.7608 45.3333C32.7608 46.2658 32.0049 47.0217 31.0724 47.0217V50.0217C33.6617 50.0217 35.7608 47.9227 35.7608 45.3333H32.7608ZM31.0724 47.0217C30.1399 47.0217 29.384 46.2658 29.384 45.3333H26.384C26.384 47.9227 28.483 50.0217 31.0724 50.0217V47.0217ZM29.384 45.3333C29.384 44.4009 30.1399 43.6449 31.0724 43.6449V40.6449C28.483 40.6449 26.384 42.744 26.384 45.3333H29.384ZM31.0724 43.6449C32.0049 43.6449 32.7608 44.4009 32.7608 45.3333H35.7608C35.7608 42.744 33.6617 40.6449 31.0724 40.6449V43.6449ZM50.6159 45.3333C50.6159 46.2658 49.8599 47.0217 48.9275 47.0217V50.0217C51.5168 50.0217 53.6159 47.9227 53.6159 45.3333H50.6159ZM48.9275 47.0217C47.995 47.0217 47.239 46.2658 47.239 45.3333H44.239C44.239 47.9227 46.3381 50.0217 48.9275 50.0217V47.0217ZM47.239 45.3333C47.239 44.4009 47.995 43.6449 48.9275 43.6449V40.6449C46.3381 40.6449 44.239 42.744 44.239 45.3333H47.239ZM48.9275 43.6449C49.8599 43.6449 50.6159 44.4009 50.6159 45.3333H53.6159C53.6159 42.744 51.5168 40.6449 48.9275 40.6449V43.6449Z" fill="white" mask="url(#path-2-outside-1_257_3936)"/>
</svg>
