<svg width="20" height="20" viewBox="0 0 20 20" fill="none" xmlns="http://www.w3.org/2000/svg">
<path fill-rule="evenodd" clip-rule="evenodd" d="M8.21157 10.8335C7.85301 12.0382 6.73695 12.9168 5.41569 12.9168C4.09443 12.9168 2.97837 12.0382 2.61981 10.8335H0.832936C0.372379 10.8335 -0.000976562 10.4636 -0.000976562 10.0001C-0.000976562 9.53988 0.371914 9.16679 0.832936 9.16679H2.61981C2.97837 7.962 4.09443 7.08346 5.41569 7.08346C6.73695 7.08346 7.85301 7.962 8.21157 9.16679H19.1651C19.6257 9.16679 19.999 9.53668 19.999 10.0001C19.999 10.4604 19.6261 10.8335 19.1651 10.8335H8.21157ZM11.7865 16.2501C12.145 15.0453 13.2611 14.1668 14.5824 14.1668C15.9036 14.1668 17.0197 15.0453 17.3782 16.2501H19.1651C19.6257 16.2501 19.999 16.62 19.999 17.0835C19.999 17.5437 19.6261 17.9168 19.1651 17.9168H17.3782C17.0197 19.1216 15.9036 20.0001 14.5824 20.0001C13.2611 20.0001 12.145 19.1216 11.7865 17.9168H0.832936C0.372379 17.9168 -0.000976563 17.5469 -0.000976562 17.0835C-0.000976562 16.6232 0.371914 16.2501 0.832936 16.2501H11.7865ZM11.7865 2.08346C12.145 0.878668 13.2611 0.00012207 14.5824 0.00012207C15.9036 0.00012207 17.0197 0.878668 17.3782 2.08346H19.1651C19.6257 2.08346 19.999 2.45334 19.999 2.91679C19.999 3.37703 19.6261 3.75012 19.1651 3.75012H17.3782C17.0197 4.95491 15.9036 5.83346 14.5824 5.83346C13.2611 5.83346 12.145 4.95491 11.7865 3.75012H0.832936C0.372379 3.75012 -0.000976563 3.38023 -0.000976562 2.91679C-0.000976562 2.45655 0.371914 2.08346 0.832936 2.08346H11.7865ZM14.5824 4.16679C15.2727 4.16679 15.8324 3.60714 15.8324 2.91679C15.8324 2.22643 15.2727 1.66679 14.5824 1.66679C13.892 1.66679 13.3324 2.22643 13.3324 2.91679C13.3324 3.60714 13.892 4.16679 14.5824 4.16679ZM14.5824 18.3335C15.2727 18.3335 15.8324 17.7738 15.8324 17.0835C15.8324 16.3931 15.2727 15.8335 14.5824 15.8335C13.892 15.8335 13.3324 16.3931 13.3324 17.0835C13.3324 17.7738 13.892 18.3335 14.5824 18.3335ZM5.41569 8.75012C4.72533 8.75012 4.16569 9.30977 4.16569 10.0001C4.16569 10.6905 4.72533 11.2501 5.41569 11.2501C6.10605 11.2501 6.66569 10.6905 6.66569 10.0001C6.66569 9.30977 6.10605 8.75012 5.41569 8.75012Z" fill="#434343"/>
</svg>
